<?xml version="1.0" encoding="UTF-8"?>
<svg width="216px" height="48px" viewBox="0 0 216 48" version="1.1" xmlns="http://www.w3.org/2000/svg" xmlns:xlink="http://www.w3.org/1999/xlink">
    <title>remake-logo-flattened-clipped</title>
    <defs>
        <path d="M27.0791016,2.2 L32.5869141,21.5 L1.08428955,21.5 L7.92211914,2.2 L27.0791016,2.2 Z M24.06,6.2 L10.748,6.2 L6.744,17.5 L27.285,17.5 L24.06,6.2 Z" id="path-1"></path>
        <path d="M34.0311279,1.5 L42.0374756,23.4831233 L-7.49622586e-13,23.4831233 L8.11535645,1.5 L34.0311279,1.5 Z M31.23,5.499 L10.902,5.499 L5.74,19.483 L36.323,19.483 L31.23,5.499 Z" id="path-3"></path>
    </defs>
    <g id="remake-logo-flattened-clipped" stroke="none" stroke-width="1" fill="none" fill-rule="evenodd">
        <g id="Group-3">
            <path d="M73.3572148,38 L73.3572148,29.26 L77.9172148,29.26 L83.5792148,38 L90.8372148,38 L84.4152148,28.462 C87.9492148,27.018 89.8492148,23.788 89.8492148,20.368 C89.8492148,15.96 86.3532148,11.4 80.4252148,11.4 L67.1252148,11.4 L67.1252148,38 L73.3572148,38 Z M79.9692148,23.75 L73.3572148,23.75 L73.3572148,17.024 L80.2352148,17.024 C82.1732148,17.024 83.7312148,18.544 83.7312148,20.368 C83.7312148,22.23 82.2112148,23.75 79.9692148,23.75 Z M102.617215,38.532 C107.785215,38.532 111.053215,35.492 112.079215,33.098 L106.607215,31.502 C105.961215,32.68 104.783215,33.478 102.731215,33.478 C99.6152148,33.478 98.2852148,31.958 97.9052148,30.134 L112.231215,30.134 C112.345215,29.488 112.383215,28.804 112.383215,28.12 C112.383215,22.534 108.659215,18.088 102.237215,18.088 C96.0432148,18.088 91.9772148,22.534 91.9772148,28.348 C91.9772148,34.39 96.3092148,38.532 102.617215,38.532 Z M106.455215,26.486 L97.9052148,26.486 C98.1712148,24.852 99.6912148,23.18 102.199215,23.18 C104.707215,23.18 106.265215,24.738 106.455215,26.486 Z M121.883215,38 L121.883215,28.386 C121.883215,25.422 122.871215,23.712 125.265215,23.712 C127.545215,23.712 128.343215,25.384 128.343215,27.93 L128.343215,38 L134.423215,38 L134.423215,28.386 C134.423215,25.422 135.411215,23.712 137.805215,23.712 C140.085215,23.712 140.883215,25.384 140.883215,27.93 L140.883215,38 L146.963215,38 L146.963215,26.562 C146.963215,21.052 143.847215,18.088 139.249215,18.088 C136.285215,18.088 134.195215,19.266 132.865215,20.672 C131.725215,19.038 129.863215,18.088 127.241215,18.088 C124.923215,18.088 123.099215,19.114 121.883215,20.52 L121.883215,18.62 L115.803215,18.62 L115.803215,38 L121.883215,38 Z M159.617215,38.532 C162.011215,38.532 163.873215,37.62 165.203215,36.214 L165.203215,38 L171.283215,38 L171.283215,18.62 L165.203215,18.62 L165.203215,20.406 C163.873215,18.962 162.011215,18.088 159.617215,18.088 C154.373215,18.088 150.193215,22.42 150.193215,28.31 C150.193215,34.2 154.373215,38.532 159.617215,38.532 Z M160.719215,33.136 C158.097215,33.136 156.197215,31.198 156.197215,28.272 C156.197215,25.384 158.097215,23.484 160.719215,23.484 C163.341215,23.484 165.355215,25.384 165.355215,28.272 C165.355215,31.198 163.341215,33.136 160.719215,33.136 Z M181.923215,38 L181.923215,33.402 L183.785215,31.274 L188.535215,38 L195.375215,38 L187.547215,26.904 L194.729215,18.62 L187.737215,18.62 L181.923215,25.726 L181.923215,10.26 L175.843215,10.26 L175.843215,38 L181.923215,38 Z M206.015215,38.532 C211.183215,38.532 214.451215,35.492 215.477215,33.098 L210.005215,31.502 C209.359215,32.68 208.181215,33.478 206.129215,33.478 C203.013215,33.478 201.683215,31.958 201.303215,30.134 L215.629215,30.134 C215.743215,29.488 215.781215,28.804 215.781215,28.12 C215.781215,22.534 212.057215,18.088 205.635215,18.088 C199.441215,18.088 195.375215,22.534 195.375215,28.348 C195.375215,34.39 199.707215,38.532 206.015215,38.532 Z M209.853215,26.486 L201.303215,26.486 C201.569215,24.852 203.089215,23.18 205.597215,23.18 C208.105215,23.18 209.663215,24.738 209.853215,26.486 Z" id="Remake" fill="#0F2F70" fill-rule="nonzero"></path>
            <g id="Group-2" transform="translate(9.845215, 26.000000)">
                <mask id="mask-2" fill="white">
                    <use xlink:href="#path-1"></use>
                </mask>
                <use id="Path-13" fill="#1656DB" fill-rule="nonzero" xlink:href="#path-1"></use>
                <rect id="Rectangle-Copy" fill="#FFFFFF" opacity="0.6" mask="url(#mask-2)" x="0" y="0" width="34" height="11"></rect>
            </g>
            <polygon id="Path" fill="#0F2F70" points="24.8793945 23.8061523 24.8793945 41.21 29.7456702 41.21 29.7456702 23.8516846"></polygon>
            <g id="Group" transform="translate(5.940063, 15.000000)">
                <mask id="mask-4" fill="white">
                    <use xlink:href="#path-3"></use>
                </mask>
                <use id="Path-12" fill="#EC135F" fill-rule="nonzero" xlink:href="#path-3"></use>
                <rect id="Rectangle" fill="#FFFFFF" opacity="0.6" mask="url(#mask-4)" x="3.90515137" y="0" width="34" height="11"></rect>
            </g>
            <polygon id="Path" fill="#0F2F70" points="24.8793945 19.0497732 24.8793945 23.8820801 29.7456702 23.8302742 29.7456702 18.8820801"></polygon>
            <path d="M45.3521214,6.22869955 L51.9554865,24.949042 L2.84164102,24.949042 L9.55290101,6.22869955 L45.3521214,6.22869955 Z" id="Path" stroke="#F76707" stroke-width="4"></path>
            <polygon id="Path" fill="#0F2F70" points="29.7456702 21.2375488 29.7456702 8.81 34.7152148 13.67 37.7798499 10.4172363 27.3543128 5.32907052e-15 16.8452148 10.4172363 19.9052148 13.67 24.8793945 8.81 24.8793945 21.3024902"></polygon>
        </g>
    </g>
</svg>